<?xml version="1.0" encoding="utf-8"?>
<!-- Generator: Adobe Illustrator 16.0.0, SVG Export Plug-In . SVG Version: 6.00 Build 0)  -->
<!DOCTYPE svg PUBLIC "-//W3C//DTD SVG 1.1//EN" "http://www.w3.org/Graphics/SVG/1.1/DTD/svg11.dtd">
<svg version="1.1" id="Layer_1" xmlns:xml="http://www.w3.org/XML/1998/namespace"
	 xmlns="http://www.w3.org/2000/svg" xmlns:xlink="http://www.w3.org/1999/xlink" x="0px" y="0px" width="291.025px"
	 height="61.025px" viewBox="0 0 291.025 61.025" enable-background="new 0 0 291.025 61.025" xml:space="preserve">
<polygon fill="#FFFFFF" stroke="#000000" stroke-miterlimit="10" points="289.5,0.49 289.525,0.51 289.525,60.51 289.5,60.536 
	-0.5,60.536 -0.525,60.514 -0.525,0.513 -0.5,0.49 "/>
<polygon fill="#231F20" stroke="#000000" stroke-miterlimit="10" points="0.5,60.525 0.5,60.5 0.5,44 0.5,30.25 0.5,16.5 0.5,0.5 
	290.5,0.5 290.525,0.5 290.5,0.5 0.5,0.5 0.5,16.5 0.5,30.25 0.5,44 0.5,60.5 "/>
<polygon fill="#231F20" stroke="#000000" stroke-miterlimit="10" points="290.5,0.5 290.5,16.5 290.5,30.25 290.5,44 290.5,60.5 
	0.5,60.5 290.5,60.5 290.5,44 290.5,30.25 290.5,16.5 "/>
<polyline fill="none" stroke="#000000" stroke-linecap="round" stroke-linejoin="round" stroke-miterlimit="3" points="290.5,0.5 
	290.5,16.5 290.5,30.25 290.5,44 290.5,60.5 0.5,60.5 "/>
<text transform="matrix(1.0226 0 0 1 7.0159 33.1345)" fill="#231F20" font-family="'DroidSans'" font-size="9.423">12V</text>
<g>
	<path fill="#979898" stroke="#000000" stroke-width="0.5" stroke-miterlimit="10" d="M0.503,12.346L0.503,12.346l4.272-0.095
		c1.1,0,2.05-0.445,2.85-1.35s1.2-1.972,1.2-3.2s-0.4-2.3-1.2-3.2c-0.788-0.887-1.721-1.315-2.8-1.3H0.503L0.507,6.73L0.5,7.991
		l0.009,2.844c-0.006,1.517,0,0,0,0L0.503,12.346z"/>
	<path fill="#8C8C8C" d="M8.671,7.495c0,1.229-0.396,2.3-1.195,3.2c-0.805,0.896-1.75,1.35-2.854,1.35H1.387
		c-0.233,0-0.146-0.001-0.146-0.001l0.146,0.001c2.675-0.147,0.901,0.23,3.215-0.563c2.133-0.729,2.751-2.652,4.021-3.985
		L8.671,7.495L8.671,7.495z"/>
	<path fill="none" stroke="#000000" stroke-width="0.5" stroke-miterlimit="10" d="M0.503,12.346L0.503,12.346l4.272-0.095
		c1.1,0,2.05-0.445,2.85-1.35s1.2-1.972,1.2-3.2s-0.4-2.3-1.2-3.2c-0.788-0.887-1.721-1.315-2.8-1.3H0.503L0.507,6.73L0.5,7.991
		l0.009,2.844c-0.006,1.517,0,0,0,0L0.503,12.346z"/>
</g>
<g>
	<path fill="#979898" stroke="#000000" stroke-width="0.5" stroke-miterlimit="10" d="M0.788,57.228L0.788,57.228l4.272-0.09
		c1.1,0,2.05-0.45,2.85-1.354c0.8-0.896,1.2-1.972,1.2-3.2s-0.4-2.3-1.2-3.195c-0.788-0.892-1.721-1.32-2.8-1.305H0.788l0.004,3.523
		L0.785,52.87l0.009,2.844c-0.006,1.517,0,0,0,0L0.788,57.228z"/>
	<path fill="#8C8C8C" d="M8.956,52.378c0,1.229-0.396,2.299-1.2,3.199c-0.8,0.896-1.75,1.35-2.85,1.35H1.672
		c-0.229,0-0.146-0.001-0.146-0.001l0.146,0.001c2.68-0.147,0.906,0.23,3.22-0.563c2.133-0.729,2.751-2.652,4.021-3.984
		L8.956,52.378L8.956,52.378z"/>
	<path fill="none" stroke="#000000" stroke-width="0.5" stroke-miterlimit="10" d="M0.788,57.228L0.788,57.228l4.272-0.09
		c1.1,0,2.05-0.45,2.85-1.354c0.8-0.896,1.2-1.972,1.2-3.2s-0.4-2.3-1.2-3.195c-0.788-0.892-1.721-1.32-2.8-1.305H0.788l0.004,3.523
		L0.785,52.87l0.009,2.844c-0.006,1.517,0,0,0,0L0.788,57.228z"/>
</g>
<g>
	<path fill="#979898" stroke="#000000" stroke-width="0.5" stroke-miterlimit="10" d="M290.497,47.802L290.497,47.802l-4.271,0.095
		c-1.104,0-2.055,0.444-2.854,1.35s-1.2,1.971-1.2,3.199c0,1.229,0.4,2.301,1.2,3.201c0.788,0.887,1.726,1.315,2.8,1.299
		l4.322,0.002l-0.004-3.525l0.007-1.26l-0.009-2.844c0.006-1.517,0,0,0,0L290.497,47.802z"/>
	<path fill="#8C8C8C" d="M282.33,52.655c0-1.229,0.4-2.301,1.199-3.201c0.801-0.895,1.75-1.35,2.85-1.35h3.234
		c0.233,0,0.146,0.002,0.146,0.002l-0.146-0.002c-2.675,0.147-0.906-0.23-3.215,0.563c-2.133,0.729-2.752,2.652-4.023,3.986
		L282.33,52.655L282.33,52.655z"/>
	<path fill="none" stroke="#000000" stroke-width="0.5" stroke-miterlimit="10" d="M290.497,47.802L290.497,47.802l-4.271,0.095
		c-1.104,0-2.055,0.444-2.854,1.35s-1.2,1.971-1.2,3.199c0,1.229,0.4,2.301,1.2,3.201c0.788,0.887,1.726,1.315,2.8,1.299
		l4.322,0.002l-0.004-3.525l0.007-1.26l-0.009-2.844c0.006-1.517,0,0,0,0L290.497,47.802z"/>
</g>
<g>
	<path fill="#979898" stroke="#000000" stroke-width="0.5" stroke-miterlimit="10" d="M290.305,3.334L290.305,3.334l-4.271,0.09
		c-1.103,0-2.05,0.45-2.853,1.354c-0.802,0.896-1.197,1.972-1.197,3.2s0.396,2.3,1.197,3.195c0.788,0.892,1.724,1.32,2.803,1.305
		h4.319l-0.006-3.523l0.009-1.261l-0.011-2.846c0.008-1.515,0,0,0,0L290.305,3.334z"/>
	<path fill="#8C8C8C" d="M282.138,8.186c0-1.229,0.398-2.303,1.197-3.199c0.803-0.896,1.75-1.354,2.854-1.354h3.229
		c0.233,0,0.146,0.001,0.146,0.001l-0.146-0.001c-2.675,0.151-0.904-0.229-3.215,0.567c-2.133,0.729-2.752,2.652-4.021,3.984
		L282.138,8.186L282.138,8.186z"/>
	<path fill="none" stroke="#000000" stroke-width="0.5" stroke-miterlimit="10" d="M290.305,3.334L290.305,3.334l-4.271,0.09
		c-1.103,0-2.05,0.45-2.853,1.354c-0.802,0.896-1.197,1.972-1.197,3.2s0.396,2.3,1.197,3.195c0.788,0.892,1.724,1.32,2.803,1.305
		h4.319l-0.006-3.523l0.009-1.261l-0.011-2.846c0.008-1.515,0,0,0,0L290.305,3.334z"/>
</g>
<text transform="matrix(1.0226 0 0 1 267.2312 34.1941)" fill="#231F20" font-family="'DroidSans'" font-size="9.423">12V</text>
<g>
	<polygon fill="#8C8C8C" points="193.864,26.531 193.864,21.556 193.889,21.535 197.139,21.535 197.161,21.556 197.161,26.535 
		197.161,26.556 197.139,26.581 193.889,26.581 193.864,26.556 	"/>
	<polygon fill="#8C8C8C" points="193.864,39.19 193.864,34.216 193.889,34.194 197.139,34.194 197.161,34.216 197.161,39.194 
		197.161,39.216 197.139,39.241 193.889,39.241 193.864,39.216 	"/>
	<rect x="192.887" y="24.83" fill="#232323" stroke="#000000" stroke-miterlimit="10" width="5.25" height="11"/>
</g>
<rect id="connector7" x="281.504" y="48.243" fill="none" width="9.956" height="9.572"/>
<rect id="connector5_1_" x="281.893" y="3.451" fill="none" width="8.314" height="8.648"/>
<rect id="connector1" x="0.549" y="19.4" fill="none" width="8.229" height="8.617"/>
<rect id="connector0" x="0.635" y="3.467" fill="none" width="8.19" height="8.617"/>
<rect id="connector3" x="1.12" y="48.349" fill="none" width="8.229" height="8.613"/>
<g>
	<polygon fill="#EEEEEE" points="59.677,51.611 59.677,51.575 59.665,51.546 57.595,51.546 57.579,51.575 57.579,51.611 
		53.315,51.611 53.315,51.575 53.303,51.546 51.232,51.546 51.217,51.575 51.217,51.611 46.953,51.611 46.953,51.575 46.94,51.546 
		44.87,51.546 44.854,51.575 44.854,51.611 42.706,51.611 42.691,51.575 42.691,9.699 42.706,9.665 44.854,9.665 44.854,9.699 
		44.87,9.736 46.95,9.699 46.95,9.669 51.214,9.669 51.214,9.699 51.23,9.736 53.298,9.736 53.31,9.699 53.31,9.669 57.574,9.669 
		57.574,9.699 57.591,9.736 59.658,9.736 59.671,9.699 59.671,9.669 61.794,9.669 61.81,9.699 61.81,51.575 61.794,51.611 	"/>
	<rect x="42.591" y="9.415" fill="none" stroke="#000000" stroke-miterlimit="10" width="19.319" height="41.946"/>
	<polygon fill="#8C8C8C" points="54.173,21.358 54.173,21.383 54.153,21.409 50.899,21.409 50.873,21.383 50.873,21.361 
		50.873,16.383 50.899,16.361 54.149,16.361 54.169,16.383 	"/>
	<polygon fill="#8C8C8C" points="54.173,42.901 54.173,42.926 54.153,42.952 50.899,42.952 50.873,42.926 50.873,42.904 
		50.873,37.926 50.899,37.904 54.149,37.904 54.169,37.926 	"/>
	<path fill="#E4F995" d="M57.47,34.048c0,6.028,0,6.028-5.25,6.028l0,0c-5.25,0-5.25,0-5.25-6.028V25.98c0-6.029,0-6.029,5.25-6.029
		l0,0c5.25,0,5.25,0,5.25,6.029V34.048z"/>
</g>
<text transform="matrix(1.0226 0 0 1 12.7625 11.0125)" fill="#231F20" font-family="'DroidSans'" font-size="9.423">+</text>
<text transform="matrix(1.0226 0 0 1 271.5125 12.0447)" fill="#231F20" font-family="'DroidSans'" font-size="9.423">+</text>
<text transform="matrix(1.0226 0 0 1 11.4651 54.1355)" fill="#231F20" font-family="'DroidSans'" font-size="9.423">-</text>
<text transform="matrix(1.0226 0 0 1 270.2156 55.1687)" fill="#231F20" font-family="'DroidSans'" font-size="9.423">-</text>
<g>
	<polygon fill="#EEEEEE" points="161.587,51.112 161.587,51.075 161.573,51.046 159.504,51.046 159.488,51.075 159.488,51.112 
		155.223,51.112 155.223,51.075 155.212,51.046 153.141,51.046 153.126,51.075 153.126,51.112 148.862,51.112 148.862,51.075 
		148.848,51.046 146.778,51.046 146.762,51.075 146.762,51.112 144.615,51.112 144.599,51.075 144.599,9.199 144.615,9.165 
		146.762,9.165 146.762,9.199 146.778,9.236 148.859,9.199 148.859,9.169 153.122,9.169 153.122,9.199 153.138,9.236 155.206,9.236 
		155.219,9.199 155.219,9.169 159.483,9.169 159.483,9.199 159.499,9.236 161.567,9.236 161.579,9.199 161.579,9.169 163.702,9.169 
		163.719,9.199 163.719,51.075 163.702,51.112 	"/>
	<rect x="144.5" y="8.915" fill="none" stroke="#000000" stroke-miterlimit="10" width="19.319" height="41.947"/>
	<polygon fill="#8C8C8C" points="156.082,20.859 156.082,20.883 156.061,20.909 152.807,20.909 152.782,20.883 152.782,20.862 
		152.782,15.883 152.807,15.862 156.057,15.862 156.078,15.883 	"/>
	<polygon fill="#8C8C8C" points="156.082,42.401 156.082,42.427 156.061,42.452 152.807,42.452 152.782,42.427 152.782,42.405 
		152.782,37.427 152.807,37.405 156.057,37.405 156.078,37.427 	"/>
	<path fill="#E4F995" d="M159.38,33.548c0,6.029,0,6.029-5.25,6.029l0,0c-5.25,0-5.25,0-5.25-6.029v-8.067
		c0-6.029,0-6.029,5.25-6.029l0,0c5.25,0,5.25,0,5.25,6.029V33.548z"/>
</g>
<g>
	<polygon fill="#EEEEEE" points="248.344,51.736 248.344,51.7 248.331,51.671 246.261,51.671 246.246,51.7 246.246,51.736 
		241.981,51.736 241.981,51.7 241.969,51.671 239.899,51.671 239.884,51.7 239.884,51.736 235.62,51.736 235.62,51.7 
		235.606,51.671 233.536,51.671 233.52,51.7 233.52,51.736 231.373,51.736 231.357,51.7 231.357,9.824 231.373,9.79 233.52,9.79 
		233.52,9.824 233.536,9.861 235.617,9.824 235.617,9.794 239.88,9.794 239.88,9.824 239.896,9.861 241.964,9.861 241.977,9.824 
		241.977,9.794 246.241,9.794 246.241,9.824 246.257,9.861 248.325,9.861 248.337,9.824 248.337,9.794 250.46,9.794 250.477,9.824 
		250.477,51.7 250.46,51.736 	"/>
	<rect x="231.258" y="9.54" fill="none" stroke="#000000" stroke-miterlimit="10" width="19.319" height="41.946"/>
	<polygon fill="#8C8C8C" points="242.84,21.483 242.84,21.508 242.819,21.534 239.565,21.534 239.54,21.508 239.54,21.486 
		239.54,16.508 239.565,16.486 242.815,16.486 242.836,16.508 	"/>
	<polygon fill="#8C8C8C" points="242.84,43.026 242.84,43.051 242.819,43.077 239.565,43.077 239.54,43.051 239.54,43.029 
		239.54,38.051 239.565,38.029 242.815,38.029 242.836,38.051 	"/>
	<path fill="#E4F995" d="M246.137,34.173c0,6.028,0,6.028-5.25,6.028l0,0c-5.25,0-5.25,0-5.25-6.028v-8.067
		c0-6.029,0-6.029,5.25-6.029l0,0c5.25,0,5.25,0,5.25,6.029V34.173z"/>
</g>
</svg>
