<?xml version="1.0" encoding="utf-8"?>
<!-- Generator: Adobe Illustrator 16.0.0, SVG Export Plug-In . SVG Version: 6.00 Build 0)  -->
<!DOCTYPE svg PUBLIC "-//W3C//DTD SVG 1.1//EN" "http://www.w3.org/Graphics/SVG/1.1/DTD/svg11.dtd">
<svg version="1.1" id="Layer_1" xmlns:xml="http://www.w3.org/XML/1998/namespace"
	 xmlns="http://www.w3.org/2000/svg" xmlns:xlink="http://www.w3.org/1999/xlink" x="0px" y="0px" width="30.24px" height="30.24px"
	 viewBox="0 0 30.24 30.24" enable-background="new 0 0 30.24 30.24" xml:space="preserve">
<desc>Fritzing footprint SVG</desc>
<g id="silkscreen">
	<line display="none" fill="none" stroke="#FFFFFF" stroke-width="0.75" x1="0.72" y1="0.72" x2="0.72" y2="29.521"/>
	<line display="none" fill="none" stroke="#FFFFFF" stroke-width="0.75" x1="0.72" y1="29.521" x2="29.521" y2="29.521"/>
	<line display="none" fill="none" stroke="#FFFFFF" stroke-width="0.75" x1="29.521" y1="29.521" x2="29.521" y2="0.72"/>
	<line display="none" fill="none" stroke="#FFFFFF" stroke-width="0.75" x1="0.72" y1="0.72" x2="11.52" y2="0.72"/>
	<line display="none" fill="none" stroke="#FFFFFF" stroke-width="0.75" x1="18.72" y1="0.72" x2="29.521" y2="0.72"/>
</g>
<circle fill="none" stroke="#FFBF00" stroke-width="1.152" cx="4.32" cy="4.32" r="1.584"/>
<circle fill="none" stroke="#FFBF00" stroke-width="1.152" cx="4.32" cy="11.52" r="1.584"/>
<circle fill="none" stroke="#FFBF00" stroke-width="1.152" cx="4.32" cy="18.72" r="1.584"/>
<circle fill="none" stroke="#FFBF00" stroke-width="1.152" cx="4.32" cy="25.92" r="1.584"/>
<circle fill="none" stroke="#FFBF00" stroke-width="1.152" cx="25.92" cy="25.92" r="1.584"/>
<circle fill="none" stroke="#FFBF00" stroke-width="1.152" cx="25.92" cy="18.72" r="1.584"/>
<circle fill="none" stroke="#FFBF00" stroke-width="1.152" cx="25.92" cy="11.52" r="1.584"/>
<circle fill="none" stroke="#FFBF00" stroke-width="1.152" cx="25.92" cy="4.32" r="1.584"/>
<rect id="connector3" x="2.284" y="23.895" fill="none" width="4" height="4"/>
<rect id="connector4" x="23.895" y="9.464" fill="none" width="4" height="4"/>
<rect id="connector5" x="23.895" y="2.284" fill="none" width="4" height="4"/>
<rect id="connector6" x="23.822" y="16.716" fill="none" width="4" height="4"/>
<rect id="connector7" x="23.895" y="23.895" fill="none" width="4" height="4"/>
<rect id="connector0" x="2.456" y="2.326" fill="none" width="4" height="4"/>
<rect id="connector1" x="2.326" y="9.563" fill="none" width="4" height="4"/>
<rect id="connector2" x="2.326" y="16.8" fill="none" width="4" height="4"/>
<g id="keepout">
</g>
<g id="soldermask">
</g>
<g id="outline">
</g>
</svg>
