<?xml version="1.0" encoding="utf-8"?>
<!-- Generator: Adobe Illustrator 16.0.0, SVG Export Plug-In . SVG Version: 6.00 Build 0)  -->
<!DOCTYPE svg PUBLIC "-//W3C//DTD SVG 1.1//EN" "http://www.w3.org/Graphics/SVG/1.1/DTD/svg11.dtd">
<svg version="1.1" id="Layer_1" xmlns:xml="http://www.w3.org/XML/1998/namespace"
	 xmlns="http://www.w3.org/2000/svg" xmlns:xlink="http://www.w3.org/1999/xlink" x="0px" y="0px" width="291.025px"
	 height="61.025px" viewBox="0 0 291.025 61.025" enable-background="new 0 0 291.025 61.025" xml:space="preserve">
<polygon fill="#FFFFFF" stroke="#000000" stroke-miterlimit="10" points="290.521,0.027 290.547,0.047 290.547,60.048 
	290.521,60.073 0.521,60.073 0.497,60.052 0.497,0.051 0.521,0.027 "/>
<polygon fill="#231F20" stroke="#000000" stroke-miterlimit="10" points="0.5,60.525 0.5,60.5 0.5,44 0.5,30.25 0.5,16.5 0.5,0.5 
	290.5,0.5 290.525,0.5 290.5,0.5 0.5,0.5 0.5,16.5 0.5,30.25 0.5,44 0.5,60.5 "/>
<polygon fill="#231F20" stroke="#000000" stroke-miterlimit="10" points="290.5,0.5 290.5,16.5 290.5,30.25 290.5,44 290.5,60.5 
	0.5,60.5 290.5,60.5 290.5,44 290.5,30.25 290.5,16.5 "/>
<path fill="#231F20" stroke="#000000" stroke-miterlimit="10" d="M260.5,44h30H260.5z"/>
<path fill="#231F20" stroke="#000000" stroke-miterlimit="10" d="M260.5,30.25h30H260.5z"/>
<path fill="#231F20" stroke="#000000" stroke-miterlimit="10" d="M260.5,16.5h30H260.5z"/>
<polygon fill="#231F20" stroke="#000000" stroke-miterlimit="10" points="226.375,15.475 219.675,15.475 219.675,10.5 
	219.654,10.479 216.404,10.479 216.379,10.5 216.379,15.479 209.681,15.479 209.681,10.5 209.658,10.479 206.408,10.479 
	206.383,10.5 206.383,15.479 203,15.479 202.979,15.5 202.979,45.5 203,45.525 206.375,45.525 206.375,50.5 206.4,50.525 
	209.65,50.525 209.671,50.5 209.671,45.525 216.371,45.525 216.371,50.5 216.396,50.525 219.646,50.525 219.667,50.5 
	219.667,45.525 226.367,45.525 226.367,50.5 226.392,50.525 229.642,50.525 229.663,50.5 229.663,45.525 233,45.525 233.025,45.5 
	233.025,15.5 233,15.475 229.675,15.475 229.675,10.5 229.654,10.479 226.404,10.479 226.379,10.5 "/>
<polygon fill="#231F20" stroke="#000000" stroke-miterlimit="10" points="84.675,15.475 84.675,10.5 84.654,10.479 81.4,10.479 
	81.375,10.5 81.375,15.479 74.675,15.479 74.675,10.5 74.654,10.479 71.4,10.479 71.375,10.5 71.375,15.479 64.675,15.479 
	64.675,10.5 64.654,10.479 61.4,10.479 61.375,10.5 61.375,15.479 58,15.479 57.975,15.5 57.975,45.5 58,45.525 61.375,45.525 
	61.375,50.5 61.4,50.525 64.671,50.5 64.671,45.525 71.371,45.525 71.371,50.5 71.396,50.525 74.646,50.525 74.667,50.5 
	74.667,45.525 81.367,45.525 81.367,50.5 81.392,50.525 84.642,50.525 84.663,50.5 84.663,45.525 88,45.525 88.025,45.5 
	88.025,15.5 88,15.475 "/>
<path fill="#231F20" stroke="#000000" stroke-miterlimit="10" d="M0.5,44h30H0.5z"/>
<path fill="#231F20" stroke="#000000" stroke-miterlimit="10" d="M0.5,30.25h30H0.5z"/>
<path fill="#231F20" stroke="#000000" stroke-miterlimit="10" d="M0.5,16.5h30H0.5z"/>
<path fill="#EEEEEE" d="M219.675,15.475h6.7V15.5l0.025,0.025h3.25l0.021-0.025v-0.021H233l0.025,0.021v30L233,45.525h-3.325V45.5
	l-0.021-0.021h-3.25l-0.025,0.021v0.025h-6.693V45.5l-0.023-0.021h-3.25l-0.022,0.021v0.025h-6.695V45.5l-0.024-0.021h-3.25
	L206.39,45.5v0.025H203l-0.021-0.025v-30L203,15.475h3.375V15.5l0.025,0.025h3.25l0.021-0.025v-0.021h6.7V15.5l0.025,0.025h3.25
	l0.021-0.025v-0.021L219.675,15.475L219.675,15.475z M225.1,23.45c-1.976-1.967-4.333-2.95-7.104-2.95c-2.729,0-5.1,0.983-7.1,2.95
	c-1.938,1.966-2.9,4.316-2.9,7.05c0,2.771,0.967,5.133,2.9,7.104l0.05,0.05c1.966,1.896,4.316,2.867,7.05,2.896
	c2.771-0.024,5.133-1.017,7.104-2.941c1.933-1.976,2.917-4.333,2.941-7.104C228.017,27.767,227.033,25.417,225.1,23.45z
	 M84.675,45.525V45.5l-0.021-0.021H81.4L81.375,45.5v0.025h-6.7V45.5l-0.021-0.021H71.4L71.375,45.5v0.025h-6.7V45.5l-0.021-0.021
	H61.4L61.375,45.5v0.025H58L57.975,45.5v-30L58,15.475h3.375V15.5l0.025,0.025l3.271-0.025v-0.021h6.7V15.5l0.025,0.025h3.25
	l0.021-0.025v-0.021h6.7V15.5l0.025,0.025h3.25l0.021-0.025v-0.021H88l0.025,0.021v30L88,45.525H84.675z M65.95,37.65
	c1.966,1.896,4.316,2.867,7.05,2.896c2.771-0.024,5.133-1.017,7.104-2.941c1.933-1.976,2.917-4.333,2.941-7.104
	c-0.024-2.729-1.017-5.083-2.941-7.05C78.133,21.483,75.767,20.5,73,20.5c-2.729,0-5.1,0.983-7.1,2.95
	c-1.938,1.966-2.9,4.316-2.9,7.05c0,2.771,0.967,5.133,2.9,7.104L65.95,37.65z"/>
<polygon fill="#8C8C8C" points="229.675,15.475 229.675,15.5 229.654,15.525 226.404,15.525 226.379,15.5 226.379,15.479 
	226.379,10.5 226.404,10.479 229.654,10.479 229.675,10.5 "/>
<polygon fill="#8C8C8C" points="209.675,45.525 209.675,50.5 209.654,50.525 206.404,50.525 206.379,50.5 206.379,45.525 
	206.379,45.5 206.404,45.479 209.654,45.479 209.675,45.5 "/>
<polygon fill="#8C8C8C" points="216.375,45.525 216.375,45.5 216.4,45.479 219.65,45.479 219.671,45.5 219.671,45.525 219.671,50.5 
	219.65,50.525 216.4,50.525 216.375,50.5 "/>
<polygon fill="#8C8C8C" points="226.375,45.525 226.375,45.5 226.4,45.479 229.65,45.479 229.671,45.5 229.671,45.525 229.671,50.5 
	229.65,50.525 226.4,50.525 226.375,50.5 "/>
<polygon fill="#8C8C8C" points="206.375,15.475 206.375,10.5 206.4,10.479 209.65,10.479 209.671,10.5 209.671,15.479 209.671,15.5 
	209.65,15.525 206.4,15.525 206.375,15.5 "/>
<polygon fill="#8C8C8C" points="219.675,15.475 219.675,15.5 219.654,15.525 216.404,15.525 216.379,15.5 216.379,15.479 
	216.379,10.5 216.404,10.479 219.654,10.479 219.675,10.5 "/>
<path fill="#8C8C8C" d="M210.95,37.65l-0.05-0.05c-1.938-1.976-2.9-4.333-2.9-7.104c0-2.729,0.967-5.083,2.9-7.05
	c2-1.967,4.367-2.95,7.1-2.95c2.771,0,5.133,0.983,7.104,2.95v0.05l-1.375,1.375L223.7,24.9h-0.05c-0.3-0.3-0.604-0.55-0.9-0.75
	c-0.3-0.233-0.6-0.438-0.896-0.604c-0.32-0.151-0.611-0.301-0.875-0.425L220.95,23.1l-0.7-0.25l-0.7-0.15L218,22.55
	c-0.5,0-0.979,0.034-1.45,0.104c-0.466,0.1-0.896,0.229-1.3,0.396c-0.02,0.015-0.037,0.021-0.05,0.025
	c-0.316,0.093-0.6,0.218-0.85,0.375c-0.367,0.167-0.726,0.383-1.059,0.65c-0.333,0.229-0.646,0.5-0.941,0.8
	c-0.333,0.333-0.642,0.717-0.9,1.146c-0.934,1.271-1.4,2.559-1.4,3.854v0.6c0,2.2,0.771,4.083,2.309,5.65l0.05,0.05v0.05
	l-0.025,0.025L211,37.65H210.95z"/>
<polygon fill="#8C8C8C" points="81.375,15.475 81.375,10.5 81.4,10.479 84.65,10.479 84.671,10.5 84.671,15.479 84.671,15.5 
	84.65,15.525 81.4,15.525 81.375,15.5 "/>
<polygon fill="#8C8C8C" points="81.375,45.525 81.375,45.5 81.4,45.479 84.65,45.479 84.671,45.5 84.671,45.525 84.671,50.5 
	84.65,50.525 81.4,50.525 81.375,50.5 "/>
<polygon fill="#8C8C8C" points="64.675,45.525 64.675,50.5 61.4,50.525 61.375,50.5 61.375,45.525 61.375,45.5 61.4,45.479 
	64.65,45.479 64.671,45.5 "/>
<polygon fill="#8C8C8C" points="71.375,45.525 71.375,45.5 71.4,45.479 74.65,45.479 74.671,45.5 74.671,45.525 74.671,50.5 
	74.65,50.525 71.4,50.525 71.375,50.5 "/>
<polygon fill="#8C8C8C" points="64.675,15.475 64.675,15.5 61.4,15.525 61.375,15.5 61.375,15.479 61.375,10.5 61.4,10.479 
	64.65,10.479 64.671,10.5 "/>
<polygon fill="#8C8C8C" points="74.675,15.475 74.675,15.5 74.654,15.525 71.4,15.525 71.375,15.5 71.375,15.479 71.375,10.5 
	71.4,10.479 74.65,10.479 74.671,10.5 "/>
<path fill="#8C8C8C" d="M67.325,36.225L65.95,37.6v0.05L65.9,37.6C63.967,35.633,63,33.267,63,30.5c0-2.729,0.967-5.083,2.9-7.05
	c2-1.967,4.367-2.95,7.1-2.95c2.771,0,5.133,0.983,7.104,2.95H80.05l-1.375,1.375c-0.292-0.29-0.583-0.548-0.875-0.775
	c-0.3-0.229-0.6-0.433-0.896-0.6s-0.604-0.3-0.9-0.4c-0.467-0.191-0.944-0.35-1.444-0.441L73,22.5c-0.5-0.033-0.979,0-1.45,0.104
	c-0.445,0.062-0.896,0.188-1.316,0.375L70.2,22.95c-0.322,0.096-0.613,0.238-0.875,0.425L69.3,23.35
	c-0.358,0.191-0.716,0.417-1.05,0.646c-0.334,0.233-0.646,0.521-0.95,0.854c-0.358,0.333-0.683,0.691-0.941,1.1
	C65.45,27.25,65,28.567,65,29.9v0.6c-0.033,2.2,0.733,4.104,2.3,5.7L67.325,36.225z"/>
<path fill="#999999" d="M223.725,24.875c0.225,0.229,0.441,0.468,0.675,0.729c0.2,0.267,0.383,0.55,0.55,0.85
	c0.233,0.367,0.433,0.8,0.6,1.3s0.317,1.083,0.45,1.75l0.05,0.305L226,29.85l0.05,0.05v0.6c-0.024,2.2-0.812,4.104-2.35,5.7
	c-0.567,0.5-1.15,0.95-1.75,1.35c-1.263-5.016-1.296-9.683-0.1-14c0.3,0.167,0.6,0.367,0.896,0.604c0.3,0.2,0.604,0.45,0.9,0.75
	h0.05L223.725,24.875z"/>
<path fill="#999999" d="M214.35,23.45c1.163,4.383,1.146,9.1-0.059,14.15l-0.05,0.05c-0.333-0.2-0.667-0.417-1-0.65
	c-0.323-0.226-0.615-0.468-0.875-0.725l0.025-0.025V36.2l-0.052-0.05c-1.531-1.566-2.307-3.45-2.307-5.65v-0.6
	c0-1.3,0.474-2.583,1.4-3.854c0.267-0.433,0.563-0.812,0.896-1.146c0.304-0.3,0.614-0.566,0.947-0.8
	C213.633,23.833,213.983,23.617,214.35,23.45z"/>
<path fill="#999999" d="M215.2,23.075c0.013-0.011,0.03-0.019,0.05-0.025c0.4-0.167,0.833-0.3,1.3-0.396
	c0.476-0.066,0.95-0.104,1.45-0.104l1.55,0.15l0.7,0.15l0.7,0.25l0.025,0.021L221,23.15c-1.3,4.563-1.283,9.479,0.05,14.75v0.05
	c-0.5,0.2-1,0.35-1.5,0.45c-0.5,0.1-1.017,0.146-1.55,0.146c-0.5,0-0.979-0.05-1.45-0.146c-0.5-0.066-0.966-0.188-1.396-0.354V38
	l0.05-0.05c1.271-5.3,1.283-10.233,0.05-14.8C215.219,23.119,215.203,23.094,215.2,23.075z"/>
<path fill="#999999" d="M222.45,29.9l0.1,0.1c0.2,0.2,0.438,0.3,0.7,0.3c0.271,0,0.521-0.1,0.75-0.3l0.104-0.1
	c0.133-0.2,0.191-0.417,0.191-0.65c0-0.3-0.1-0.55-0.3-0.75c-0.229-0.2-0.479-0.283-0.75-0.25c-0.267-0.033-0.5,0.05-0.7,0.25
	c-0.229,0.2-0.333,0.45-0.3,0.75C222.217,29.483,222.283,29.7,222.45,29.9z"/>
<path fill="#999999" d="M218,31c-0.267-0.033-0.5,0.05-0.7,0.25c-0.229,0.233-0.333,0.483-0.3,0.75
	c-0.033,0.271,0.067,0.521,0.3,0.75c0.2,0.2,0.438,0.3,0.7,0.3c0.3,0,0.55-0.1,0.75-0.3c0.2-0.229,0.3-0.479,0.3-0.75
	c0-0.267-0.1-0.517-0.3-0.75C218.55,31.05,218.3,30.967,218,31z"/>
<path fill="#999999" d="M213.5,29.75c0.2-0.229,0.3-0.479,0.3-0.75c0-0.3-0.1-0.55-0.3-0.75c-0.229-0.2-0.479-0.283-0.75-0.25
	c-0.267-0.033-0.5,0.05-0.7,0.25c-0.229,0.2-0.333,0.45-0.3,0.75c-0.033,0.271,0.067,0.521,0.3,0.75l0.059,0.05
	c0.167,0.167,0.383,0.25,0.646,0.25C213.017,30.05,213.267,29.95,213.5,29.75z"/>
<path fill="#999999" d="M67.325,36.225L67.3,36.2c-1.562-1.6-2.333-3.5-2.3-5.7v-0.6c0-1.333,0.45-2.65,1.354-3.95
	c0.267-0.4,0.583-0.767,0.941-1.1c0.309-0.333,0.617-0.617,0.95-0.854c0.333-0.229,0.688-0.45,1.05-0.646l0.025,0.021L69.3,23.4
	c1.167,4.396,1.15,9.117-0.05,14.146c-0.333-0.167-0.646-0.358-0.95-0.6c-0.333-0.233-0.633-0.483-0.896-0.75h-0.05L67.325,36.225z"
	/>
<path fill="#999999" d="M76,23.05h-0.05L75.9,23.15c-1.3,4.563-1.283,9.5,0.05,14.8c-0.467,0.167-0.934,0.3-1.4,0.4
	c-0.5,0.062-1.017,0.108-1.55,0.146c-0.5-0.033-0.979-0.083-1.45-0.146c-0.466-0.104-0.917-0.233-1.35-0.4
	c1.333-5.3,1.35-10.25,0.05-14.85V23l-0.021-0.021c0.429-0.188,0.871-0.313,1.316-0.375C72.017,22.5,72.5,22.467,73,22.5l1.55,0.104
	C75.05,22.7,75.533,22.85,76,23.05z"/>
<path fill="#999999" d="M78.675,24.825L78.65,24.85v0.05c0.467,0.467,0.883,0.979,1.25,1.55c0.2,0.367,0.396,0.816,0.6,1.35
	c0.167,0.5,0.317,1.067,0.45,1.7l0.05,1c-0.033,2.2-0.813,4.083-2.35,5.65c-0.271,0.229-0.55,0.467-0.854,0.7
	c-0.3,0.229-0.583,0.433-0.85,0.6c-1.233-4.967-1.25-9.633-0.05-14c0.3,0.167,0.6,0.367,0.896,0.6
	C78.092,24.277,78.383,24.535,78.675,24.825z"/>
<path fill="#999999" d="M77.55,28.5c-0.229,0.2-0.333,0.45-0.3,0.75c-0.033,0.233,0.033,0.45,0.2,0.65l0.1,0.1
	c0.2,0.2,0.438,0.3,0.7,0.3c0.271,0,0.521-0.1,0.75-0.3l0.104-0.1c0.133-0.2,0.191-0.417,0.191-0.65c0-0.3-0.1-0.55-0.3-0.75
	c-0.229-0.2-0.479-0.283-0.75-0.25C77.983,28.217,77.75,28.3,77.55,28.5z"/>
<path fill="#999999" d="M73,31c-0.267-0.033-0.5,0.05-0.7,0.25C72.07,31.483,71.967,31.733,72,32c-0.033,0.271,0.067,0.521,0.3,0.75
	c0.2,0.2,0.438,0.3,0.7,0.3c0.3,0,0.55-0.1,0.75-0.3c0.2-0.229,0.3-0.479,0.3-0.75c0-0.267-0.108-0.533-0.35-0.8
	C73.533,31.033,73.3,30.967,73,31z"/>
<path fill="#999999" d="M68.5,28.25c-0.229-0.2-0.479-0.283-0.75-0.25c-0.267-0.033-0.5,0.05-0.7,0.25
	c-0.229,0.2-0.333,0.45-0.3,0.75c-0.033,0.271,0.067,0.521,0.3,0.75c0.2,0.2,0.438,0.3,0.7,0.3c0.271,0,0.521-0.1,0.75-0.3
	c0.2-0.229,0.3-0.479,0.3-0.75C68.8,28.7,68.7,28.45,68.5,28.25z"/>
<path fill="#CCCCCC" d="M220.975,23.125c0.264,0.124,0.555,0.271,0.875,0.425c-1.196,4.317-1.163,8.984,0.1,14
	c0.6-0.396,1.183-0.85,1.75-1.35c1.533-1.6,2.316-3.5,2.35-5.7v-0.6L226,29.85l0.05-0.059L226,29.5
	c-0.133-0.667-0.283-1.25-0.45-1.75s-0.358-0.933-0.6-1.3c-0.167-0.3-0.35-0.583-0.55-0.85c-0.229-0.266-0.45-0.499-0.675-0.729
	L225.1,23.5v-0.05c1.933,1.966,2.917,4.316,2.941,7.05c-0.024,2.771-1.017,5.133-2.941,7.104c-1.976,1.933-4.333,2.917-7.104,2.941
	c-2.729-0.024-5.083-1-7.05-2.896H211l1.375-1.375c0.26,0.257,0.557,0.499,0.875,0.725c0.333,0.233,0.667,0.45,1,0.65l0.05-0.05
	c1.196-5.059,1.222-9.771,0.059-14.15c0.25-0.157,0.525-0.282,0.85-0.375c0.002,0.021,0.021,0.044,0.05,0.075
	c1.233,4.563,1.224,9.5-0.05,14.8L215.15,38v0.05c0.434,0.167,0.896,0.284,1.396,0.354c0.476,0.1,0.95,0.146,1.45,0.146
	c0.533,0,1.05-0.05,1.55-0.146c0.5-0.104,1-0.25,1.5-0.45V37.9c-1.333-5.271-1.35-10.188-0.05-14.75L220.975,23.125z"/>
<path fill="#CCCCCC" d="M70.225,22.975L70.25,23V23.1c1.3,4.6,1.283,9.55-0.05,14.85c0.433,0.167,0.883,0.3,1.35,0.4
	c0.476,0.062,0.95,0.108,1.45,0.146c0.533-0.033,1.05-0.083,1.55-0.146c0.476-0.104,0.938-0.233,1.4-0.4
	c-1.333-5.3-1.35-10.233-0.05-14.8l0.05-0.104H76c0.3,0.104,0.604,0.233,0.9,0.4c-1.2,4.367-1.188,9.033,0.05,14
	c0.267-0.167,0.55-0.367,0.85-0.6c0.309-0.233,0.583-0.476,0.854-0.7c1.533-1.566,2.313-3.45,2.35-5.65l-0.05-1
	c-0.133-0.633-0.284-1.2-0.45-1.7c-0.194-0.524-0.396-0.979-0.6-1.35c-0.367-0.567-0.783-1.083-1.25-1.55v-0.05l0.021-0.025
	l1.375-1.375H80.1c1.933,1.966,2.917,4.316,2.941,7.05C83.017,33.267,82.03,35.63,80.1,37.6c-1.976,1.933-4.333,2.917-7.104,2.941
	c-2.729-0.024-5.083-1-7.05-2.896V37.6l1.375-1.375L67.35,36.2h0.05c0.267,0.267,0.563,0.517,0.896,0.75
	c0.309,0.233,0.617,0.433,0.95,0.6c1.2-5.024,1.217-9.75,0.05-14.146l0.025-0.025c0.262-0.187,0.553-0.329,0.875-0.425
	L70.225,22.975z"/>
<path fill="#0000FF" d="M222.45,29.9c-0.167-0.2-0.233-0.417-0.2-0.65c-0.033-0.3,0.067-0.55,0.3-0.75c0.2-0.2,0.438-0.283,0.7-0.25
	c0.271-0.033,0.521,0.05,0.75,0.25c0.2,0.2,0.3,0.45,0.3,0.75c0,0.233-0.062,0.45-0.191,0.65L224,30c-0.229,0.2-0.479,0.3-0.75,0.3
	c-0.267,0-0.5-0.1-0.7-0.3L222.45,29.9z M77.55,28.5c0.2-0.2,0.438-0.283,0.7-0.25C78.52,28.217,78.77,28.3,79,28.5
	c0.2,0.2,0.3,0.45,0.3,0.75c0,0.233-0.062,0.45-0.191,0.65L79,30c-0.229,0.2-0.479,0.3-0.75,0.3c-0.267,0-0.5-0.1-0.7-0.3l-0.1-0.1
	c-0.167-0.2-0.233-0.417-0.2-0.65C77.217,28.95,77.317,28.7,77.55,28.5z"/>
<path fill="#FF0000" d="M218,31c0.3-0.033,0.55,0.05,0.75,0.25c0.2,0.233,0.3,0.483,0.3,0.75c0,0.271-0.1,0.521-0.3,0.75
	c-0.2,0.2-0.45,0.3-0.75,0.3c-0.267,0-0.5-0.1-0.7-0.3c-0.229-0.229-0.333-0.479-0.3-0.75c-0.033-0.267,0.067-0.517,0.3-0.75
	C217.5,31.05,217.733,30.967,218,31z M73,31c0.3-0.033,0.533,0.033,0.7,0.2c0.233,0.267,0.35,0.533,0.35,0.8
	c0,0.271-0.1,0.521-0.3,0.75c-0.2,0.2-0.45,0.3-0.75,0.3c-0.267,0-0.5-0.1-0.7-0.3C72.07,32.52,71.967,32.27,72,32
	c-0.033-0.267,0.067-0.517,0.3-0.75C72.5,31.05,72.733,30.967,73,31z"/>
<path fill="#00FF00" d="M213.5,29.75c-0.229,0.2-0.479,0.3-0.75,0.3c-0.267,0-0.479-0.083-0.646-0.25l-0.059-0.05
	c-0.229-0.229-0.333-0.479-0.3-0.75c-0.033-0.3,0.067-0.55,0.3-0.75c0.2-0.2,0.438-0.283,0.7-0.25c0.271-0.033,0.521,0.05,0.75,0.25
	c0.2,0.2,0.3,0.45,0.3,0.75C213.8,29.267,213.7,29.517,213.5,29.75z M68.5,28.25c0.2,0.2,0.3,0.45,0.3,0.75
	c0,0.271-0.1,0.521-0.3,0.75c-0.229,0.2-0.479,0.3-0.75,0.3c-0.267,0-0.5-0.1-0.7-0.3c-0.229-0.229-0.333-0.479-0.3-0.75
	c-0.033-0.3,0.067-0.55,0.3-0.75c0.2-0.2,0.438-0.283,0.7-0.25C68.017,27.967,68.267,28.05,68.5,28.25z"/>
<polyline fill="none" stroke="#000000" stroke-linecap="round" stroke-linejoin="round" stroke-miterlimit="3" points="290.5,0.5 
	290.5,16.5 290.5,30.25 290.5,44 290.5,60.5 0.5,60.5 "/>
<path fill="none" stroke="#FFFFFF" stroke-linecap="round" stroke-linejoin="round" stroke-miterlimit="3" stroke-opacity="0.6" d="
	M260.5,44h30 M260.5,30.25h30 M260.5,16.5h30 M0.5,44h30 M0.5,30.25h30 M0.5,16.5h30"/>
<text transform="matrix(1.0226 0 0 1 28.2312 12.3464)" fill="#231F20" font-family="'DroidSans'" font-size="9.423">+12V</text>
<text transform="matrix(1.0226 0 0 1 37.2332 26.8484)" fill="#231F20" font-family="'DroidSans'" font-size="9.423">G</text>
<text transform="matrix(1.0226 0 0 1 37.2332 41.0251)" fill="#231F20" font-family="'DroidSans'" font-size="9.423">R</text>
<text transform="matrix(1.0226 0 0 1 37.2332 55.5251)" fill="#231F20" font-family="'DroidSans'" font-size="9.423">B</text>
<g>
	<path fill="#979898" stroke="#000000" stroke-width="0.5" stroke-miterlimit="10" d="M0.503,12.346L0.503,12.346l4.272-0.094
		c1.1,0,2.05-0.446,2.85-1.35s1.2-1.972,1.2-3.2c0-1.229-0.4-2.3-1.2-3.2c-0.788-0.887-1.721-1.316-2.8-1.3H0.503L0.507,6.73
		L0.5,7.991l0.009,2.844c-0.006,1.516,0,0,0,0L0.503,12.346z"/>
	<path fill="#8C8C8C" d="M8.671,7.495c0,1.229-0.396,2.3-1.196,3.2c-0.804,0.896-1.75,1.35-2.854,1.35H1.387
		c-0.233,0-0.146-0.001-0.146-0.001l0.146,0.001c2.675-0.148,0.902,0.23,3.215-0.564c2.133-0.729,2.751-2.652,4.021-3.985H8.671
		L8.671,7.495z"/>
	<path fill="none" stroke="#000000" stroke-width="0.5" stroke-miterlimit="10" d="M0.503,12.346L0.503,12.346l4.272-0.094
		c1.1,0,2.05-0.446,2.85-1.35s1.2-1.972,1.2-3.2c0-1.229-0.4-2.3-1.2-3.2c-0.788-0.887-1.721-1.316-2.8-1.3H0.503L0.507,6.73
		L0.5,7.991l0.009,2.844c-0.006,1.516,0,0,0,0L0.503,12.346z"/>
</g>
<g>
	<path fill="#979898" stroke="#000000" stroke-width="0.5" stroke-miterlimit="10" d="M0.503,28.061L0.503,28.061l4.272-0.09
		c1.1,0,2.05-0.45,2.85-1.354c0.8-0.896,1.2-1.972,1.2-3.2c0-1.229-0.4-2.3-1.2-3.196c-0.788-0.891-1.721-1.32-2.8-1.304H0.503
		l0.004,3.524L0.5,23.706l0.009,2.844c-0.006,1.516,0,0,0,0L0.503,28.061z"/>
	<path fill="#8C8C8C" d="M8.671,23.21c0,1.229-0.396,2.3-1.196,3.2c-0.804,0.896-1.75,1.35-2.854,1.35H1.387
		c-0.233,0-0.146-0.001-0.146-0.001l0.146,0.001c2.675-0.148,0.902,0.23,3.215-0.564c2.133-0.729,2.751-2.652,4.021-3.985H8.671
		L8.671,23.21z"/>
	<path fill="none" stroke="#000000" stroke-width="0.5" stroke-miterlimit="10" d="M0.503,28.061L0.503,28.061l4.272-0.09
		c1.1,0,2.05-0.45,2.85-1.354c0.8-0.896,1.2-1.972,1.2-3.2c0-1.229-0.4-2.3-1.2-3.196c-0.788-0.891-1.721-1.32-2.8-1.304H0.503
		l0.004,3.524L0.5,23.706l0.009,2.844c-0.006,1.516,0,0,0,0L0.503,28.061z"/>
</g>
<g>
	<path fill="#979898" stroke="#000000" stroke-width="0.5" stroke-miterlimit="10" d="M0.503,41.728L0.503,41.728l4.272-0.09
		c1.1,0,2.05-0.45,2.85-1.354c0.8-0.896,1.2-1.972,1.2-3.2c0-1.229-0.4-2.3-1.2-3.196c-0.788-0.891-1.721-1.32-2.8-1.304H0.503
		l0.004,3.523L0.5,37.373l0.009,2.844c-0.006,1.516,0,0,0,0L0.503,41.728z"/>
	<path fill="#8C8C8C" d="M8.671,36.878c0,1.229-0.396,2.299-1.196,3.199c-0.804,0.896-1.75,1.35-2.854,1.35H1.387
		c-0.233,0-0.146-0.001-0.146-0.001l0.146,0.001c2.675-0.148,0.902,0.23,3.215-0.564c2.133-0.729,2.751-2.652,4.021-3.984H8.671
		L8.671,36.878z"/>
	<path fill="none" stroke="#000000" stroke-width="0.5" stroke-miterlimit="10" d="M0.503,41.728L0.503,41.728l4.272-0.09
		c1.1,0,2.05-0.45,2.85-1.354c0.8-0.896,1.2-1.972,1.2-3.2c0-1.229-0.4-2.3-1.2-3.196c-0.788-0.891-1.721-1.32-2.8-1.304H0.503
		l0.004,3.523L0.5,37.373l0.009,2.844c-0.006,1.516,0,0,0,0L0.503,41.728z"/>
</g>
<g>
	<path fill="#979898" stroke="#000000" stroke-width="0.5" stroke-miterlimit="10" d="M0.788,57.228L0.788,57.228l4.272-0.09
		c1.1,0,2.05-0.45,2.85-1.354c0.8-0.896,1.2-1.972,1.2-3.2c0-1.229-0.4-2.3-1.2-3.196c-0.788-0.891-1.721-1.32-2.8-1.304H0.788
		l0.004,3.523L0.785,52.87l0.009,2.844c-0.006,1.516,0,0,0,0L0.788,57.228z"/>
	<path fill="#8C8C8C" d="M8.956,52.378c0,1.229-0.396,2.299-1.2,3.199c-0.8,0.896-1.75,1.35-2.85,1.35H1.672
		c-0.229,0-0.146-0.001-0.146-0.001l0.146,0.001c2.679-0.148,0.906,0.23,3.219-0.564c2.133-0.729,2.751-2.652,4.021-3.984H8.956
		L8.956,52.378z"/>
	<path fill="none" stroke="#000000" stroke-width="0.5" stroke-miterlimit="10" d="M0.788,57.228L0.788,57.228l4.272-0.09
		c1.1,0,2.05-0.45,2.85-1.354c0.8-0.896,1.2-1.972,1.2-3.2c0-1.229-0.4-2.3-1.2-3.196c-0.788-0.891-1.721-1.32-2.8-1.304H0.788
		l0.004,3.523L0.785,52.87l0.009,2.844c-0.006,1.516,0,0,0,0L0.788,57.228z"/>
</g>
<g>
	<path fill="#979898" stroke="#000000" stroke-width="0.5" stroke-miterlimit="10" d="M290.497,47.802L290.497,47.802l-4.271,0.094
		c-1.104,0-2.054,0.445-2.854,1.35s-1.2,1.971-1.2,3.199c0,1.23,0.4,2.301,1.2,3.201c0.788,0.887,1.725,1.316,2.8,1.299l4.322,0.002
		l-0.004-3.525l0.007-1.26l-0.009-2.844c0.006-1.516,0,0,0,0L290.497,47.802z"/>
	<path fill="#8C8C8C" d="M282.33,52.655c0-1.229,0.4-2.301,1.199-3.201c0.801-0.895,1.75-1.35,2.85-1.35h3.234
		c0.233,0,0.146,0.002,0.146,0.002l-0.146-0.002c-2.675,0.148-0.906-0.23-3.215,0.564c-2.133,0.729-2.752,2.652-4.023,3.986H282.33
		L282.33,52.655z"/>
	<path fill="none" stroke="#000000" stroke-width="0.5" stroke-miterlimit="10" d="M290.497,47.802L290.497,47.802l-4.271,0.094
		c-1.104,0-2.054,0.445-2.854,1.35s-1.2,1.971-1.2,3.199c0,1.23,0.4,2.301,1.2,3.201c0.788,0.887,1.725,1.316,2.8,1.299l4.322,0.002
		l-0.004-3.525l0.007-1.26l-0.009-2.844c0.006-1.516,0,0,0,0L290.497,47.802z"/>
</g>
<g>
	<path fill="#979898" stroke="#000000" stroke-width="0.5" stroke-miterlimit="10" d="M290.497,32.089L290.497,32.089l-4.271,0.094
		c-1.104,0-2.054,0.445-2.854,1.35s-1.2,1.971-1.2,3.199c0,1.23,0.4,2.301,1.2,3.201c0.788,0.887,1.725,1.316,2.8,1.299l4.322,0.002
		l-0.004-3.525l0.007-1.26l-0.009-2.844c0.006-1.516,0,0,0,0L290.497,32.089z"/>
	<path fill="#8C8C8C" d="M282.33,36.94c0-1.229,0.4-2.301,1.199-3.201c0.801-0.896,1.75-1.35,2.85-1.35h3.234
		c0.233,0,0.146,0.002,0.146,0.002l-0.146-0.002c-2.675,0.148-0.906-0.23-3.215,0.564c-2.133,0.729-2.752,2.652-4.023,3.986H282.33
		L282.33,36.94z"/>
	<path fill="none" stroke="#000000" stroke-width="0.5" stroke-miterlimit="10" d="M290.497,32.089L290.497,32.089l-4.271,0.094
		c-1.104,0-2.054,0.445-2.854,1.35s-1.2,1.971-1.2,3.199c0,1.23,0.4,2.301,1.2,3.201c0.788,0.887,1.725,1.316,2.8,1.299l4.322,0.002
		l-0.004-3.525l0.007-1.26l-0.009-2.844c0.006-1.516,0,0,0,0L290.497,32.089z"/>
</g>
<g>
	<path fill="#979898" stroke="#000000" stroke-width="0.5" stroke-miterlimit="10" d="M290.497,18.421L290.497,18.421l-4.271,0.09
		c-1.104,0-2.054,0.45-2.854,1.354c-0.8,0.896-1.2,1.972-1.2,3.2c0,1.229,0.4,2.3,1.2,3.196c0.788,0.891,1.725,1.32,2.8,1.304h4.322
		l-0.004-3.523l0.007-1.261l-0.009-2.844c0.006-1.516,0,0,0,0L290.497,18.421z"/>
	<path fill="#8C8C8C" d="M282.33,23.272c0-1.229,0.4-2.299,1.199-3.199c0.801-0.896,1.75-1.35,2.85-1.35h3.234
		c0.233,0,0.146,0.001,0.146,0.001l-0.146-0.001c-2.675,0.148-0.906-0.23-3.215,0.564c-2.133,0.729-2.752,2.652-4.023,3.984H282.33
		L282.33,23.272z"/>
	<path fill="none" stroke="#000000" stroke-width="0.5" stroke-miterlimit="10" d="M290.497,18.421L290.497,18.421l-4.271,0.09
		c-1.104,0-2.054,0.45-2.854,1.354c-0.8,0.896-1.2,1.972-1.2,3.2c0,1.229,0.4,2.3,1.2,3.196c0.788,0.891,1.725,1.32,2.8,1.304h4.322
		l-0.004-3.523l0.007-1.261l-0.009-2.844c0.006-1.516,0,0,0,0L290.497,18.421z"/>
</g>
<g>
	<path fill="#979898" stroke="#000000" stroke-width="0.5" stroke-miterlimit="10" d="M290.305,3.334L290.305,3.334l-4.271,0.09
		c-1.103,0-2.05,0.45-2.853,1.354c-0.801,0.896-1.197,1.972-1.197,3.2c0,1.229,0.396,2.3,1.197,3.196
		c0.788,0.891,1.724,1.32,2.803,1.304h4.319l-0.005-3.523l0.008-1.261l-0.01-2.846c0.007-1.514,0,0,0,0L290.305,3.334z"/>
	<path fill="#8C8C8C" d="M282.138,8.186c0-1.229,0.399-2.302,1.198-3.199c0.802-0.896,1.75-1.353,2.854-1.353h3.23
		c0.233,0,0.146,0.001,0.146,0.001l-0.146-0.001c-2.675,0.151-0.905-0.229-3.215,0.567c-2.133,0.729-2.752,2.652-4.022,3.984
		H282.138L282.138,8.186z"/>
	<path fill="none" stroke="#000000" stroke-width="0.5" stroke-miterlimit="10" d="M290.305,3.334L290.305,3.334l-4.271,0.09
		c-1.103,0-2.05,0.45-2.853,1.354c-0.801,0.896-1.197,1.972-1.197,3.2c0,1.229,0.396,2.3,1.197,3.196
		c0.788,0.891,1.724,1.32,2.803,1.304h4.319l-0.005-3.523l0.008-1.261l-0.01-2.846c0.007-1.514,0,0,0,0L290.305,3.334z"/>
</g>
<g>
	<polygon fill="#231F20" stroke="#000000" stroke-miterlimit="10" points="156.175,15.216 156.175,10.24 156.154,10.219 
		152.9,10.219 152.875,10.24 152.875,15.219 146.175,15.219 146.175,10.24 146.154,10.219 142.9,10.219 142.875,10.24 
		142.875,15.219 136.175,15.219 136.175,10.24 136.154,10.219 132.9,10.219 132.875,10.24 132.875,15.219 129.5,15.219 
		129.475,15.24 129.475,45.24 129.5,45.265 132.875,45.265 132.875,50.24 132.9,50.265 136.171,50.24 136.171,45.265 
		142.871,45.265 142.871,50.24 142.896,50.265 146.146,50.265 146.167,50.24 146.167,45.265 152.867,45.265 152.867,50.24 
		152.892,50.265 156.142,50.265 156.163,50.24 156.163,45.265 159.5,45.265 159.525,45.24 159.525,15.24 159.5,15.216 	"/>
	<polygon fill="#EEEEEE" points="156.175,45.265 156.175,45.24 156.154,45.219 152.9,45.219 152.875,45.24 152.875,45.265 
		146.175,45.265 146.175,45.24 146.154,45.219 142.9,45.219 142.875,45.24 142.875,45.265 136.175,45.265 136.175,45.24 
		136.154,45.219 132.9,45.219 132.875,45.24 132.875,45.265 129.5,45.265 129.475,45.24 129.475,15.24 129.5,15.216 132.875,15.216 
		132.875,15.24 132.9,15.266 136.171,15.24 136.171,15.219 142.871,15.219 142.871,15.24 142.896,15.266 146.146,15.266 
		146.167,15.24 146.167,15.219 152.867,15.219 152.867,15.24 152.892,15.266 156.142,15.266 156.163,15.24 156.163,15.219 
		159.5,15.219 159.525,15.24 159.525,45.24 159.5,45.265 	"/>
	<path fill="#EEEEEE" d="M137.45,37.39c1.966,1.896,4.316,2.863,7.05,2.896c2.771-0.029,5.133-1.018,7.104-2.945
		c1.933-1.973,2.917-4.334,2.941-7.104c-0.024-2.729-1.017-5.083-2.941-7.05c-1.976-1.963-4.337-2.946-7.104-2.946
		c-2.729,0-5.1,0.983-7.1,2.95c-1.938,1.966-2.9,4.313-2.9,7.05c0,2.771,0.967,5.132,2.9,7.104L137.45,37.39z"/>
	<polygon fill="#8C8C8C" points="152.875,15.216 152.875,10.24 152.9,10.219 156.15,10.219 156.171,10.24 156.171,15.219 
		156.171,15.24 156.15,15.266 152.9,15.266 152.875,15.24 	"/>
	<polygon fill="#8C8C8C" points="152.875,45.265 152.875,45.24 152.9,45.219 156.15,45.219 156.171,45.24 156.171,45.265 
		156.171,50.24 156.15,50.265 152.9,50.265 152.875,50.24 	"/>
	<polygon fill="#8C8C8C" points="136.175,45.265 136.175,50.24 132.9,50.265 132.875,50.24 132.875,45.265 132.875,45.24 
		132.9,45.219 136.15,45.219 136.171,45.24 	"/>
	<polygon fill="#8C8C8C" points="142.875,45.265 142.875,45.24 142.9,45.219 146.15,45.219 146.171,45.24 146.171,45.265 
		146.171,50.24 146.15,50.265 142.9,50.265 142.875,50.24 	"/>
	<polygon fill="#8C8C8C" points="136.175,15.216 136.175,15.24 132.9,15.266 132.875,15.24 132.875,15.219 132.875,10.24 
		132.9,10.219 136.15,10.219 136.171,10.24 	"/>
	<polygon fill="#8C8C8C" points="146.175,15.216 146.175,15.24 146.154,15.266 142.9,15.266 142.875,15.24 142.875,15.219 
		142.875,10.24 142.9,10.219 146.15,10.219 146.171,10.24 	"/>
	<path fill="#8C8C8C" d="M138.825,35.967l-1.375,1.375v0.053l-0.05-0.053c-1.938-1.969-2.9-4.334-2.9-7.101
		c0-2.729,0.967-5.083,2.9-7.05c2-1.967,4.367-2.95,7.1-2.95c2.771,0,5.133,0.983,7.104,2.95h-0.059l-1.375,1.375
		c-0.292-0.29-0.583-0.548-0.875-0.775c-0.3-0.229-0.6-0.433-0.896-0.6s-0.604-0.3-0.9-0.4c-0.467-0.191-0.944-0.35-1.444-0.441
		L144.5,22.24c-0.5-0.033-0.979,0-1.45,0.104c-0.445,0.063-0.896,0.188-1.316,0.375l-0.029-0.025
		c-0.322,0.096-0.613,0.234-0.875,0.425l-0.022-0.024c-0.361,0.195-0.719,0.417-1.053,0.646s-0.646,0.521-0.947,0.854
		c-0.361,0.333-0.686,0.695-0.944,1.104c-0.904,1.3-1.354,2.617-1.354,3.95v0.6c-0.03,2.2,0.733,4.104,2.303,5.7L138.825,35.967z"/>
	<path fill="#999999" d="M138.825,35.967l-0.025-0.021c-1.562-1.604-2.333-3.5-2.3-5.7v-0.6c0-1.333,0.45-2.65,1.354-3.95
		c0.267-0.4,0.583-0.771,0.941-1.104c0.309-0.333,0.617-0.613,0.95-0.854c0.333-0.229,0.688-0.45,1.05-0.646l0.025,0.021
		l-0.025,0.029c1.167,4.396,1.15,9.113-0.05,14.146c-0.333-0.168-0.646-0.363-0.95-0.6c-0.333-0.234-0.633-0.484-0.896-0.75h-0.05
		L138.825,35.967z"/>
	<path fill="#999999" d="M147.5,22.79h-0.05l-0.05,0.104c-1.3,4.563-1.283,9.5,0.05,14.8c-0.467,0.166-0.934,0.299-1.4,0.396
		c-0.5,0.063-1.017,0.111-1.55,0.146c-0.5-0.033-0.979-0.082-1.45-0.146c-0.466-0.104-0.917-0.23-1.35-0.396
		c1.333-5.301,1.35-10.25,0.05-14.854V22.74l-0.021-0.021c0.429-0.188,0.871-0.313,1.316-0.375c0.472-0.104,0.95-0.138,1.45-0.104
		l1.55,0.104C146.55,22.441,147.033,22.591,147.5,22.79z"/>
	<path fill="#999999" d="M150.175,24.566l-0.021,0.021v0.054c0.467,0.467,0.883,0.979,1.25,1.55c0.2,0.367,0.396,0.813,0.6,1.35
		c0.167,0.5,0.317,1.067,0.45,1.7l0.05,1c-0.03,2.2-0.813,4.083-2.35,5.649c-0.271,0.229-0.55,0.467-0.854,0.697
		c-0.3,0.229-0.583,0.436-0.85,0.604c-1.233-4.968-1.25-9.633-0.05-14c0.3,0.167,0.6,0.367,0.896,0.6
		C149.592,24.018,149.883,24.276,150.175,24.566z"/>
	<path fill="#999999" d="M149.05,28.24c-0.229,0.2-0.333,0.45-0.3,0.75c-0.033,0.233,0.033,0.45,0.2,0.65l0.1,0.1
		c0.2,0.2,0.438,0.299,0.7,0.299c0.271,0,0.521-0.099,0.75-0.299l0.104-0.1c0.133-0.2,0.191-0.417,0.191-0.65
		c0-0.3-0.1-0.55-0.3-0.75c-0.229-0.2-0.479-0.283-0.75-0.25C149.483,27.957,149.25,28.04,149.05,28.24z"/>
	<path fill="#999999" d="M144.5,30.741c-0.267-0.033-0.5,0.049-0.7,0.25c-0.229,0.232-0.333,0.482-0.3,0.75
		c-0.033,0.271,0.067,0.521,0.3,0.749c0.2,0.201,0.438,0.301,0.7,0.301c0.3,0,0.55-0.1,0.75-0.301c0.2-0.229,0.3-0.478,0.3-0.749
		c0-0.268-0.108-0.533-0.35-0.801C145.033,30.774,144.8,30.708,144.5,30.741z"/>
	<path fill="#999999" d="M140,27.99c-0.229-0.2-0.479-0.283-0.75-0.25c-0.267-0.033-0.5,0.05-0.7,0.25
		c-0.229,0.2-0.333,0.45-0.3,0.75c-0.033,0.271,0.067,0.521,0.3,0.75c0.2,0.2,0.438,0.3,0.7,0.3c0.271,0,0.521-0.1,0.75-0.3
		c0.2-0.229,0.3-0.479,0.3-0.75C140.3,28.441,140.2,28.191,140,27.99z"/>
	<path fill="#CCCCCC" d="M141.725,22.716l0.021,0.024v0.101c1.3,4.604,1.283,9.553-0.05,14.854c0.433,0.166,0.883,0.299,1.35,0.396
		c0.476,0.063,0.95,0.111,1.45,0.146c0.533-0.033,1.05-0.082,1.55-0.146c0.476-0.104,0.938-0.23,1.4-0.396
		c-1.333-5.301-1.35-10.234-0.05-14.8l0.05-0.104h0.05c0.3,0.104,0.604,0.233,0.9,0.4c-1.2,4.367-1.188,9.029,0.05,14
		c0.267-0.168,0.55-0.367,0.85-0.604c0.309-0.23,0.583-0.473,0.854-0.701c1.533-1.563,2.313-3.445,2.35-5.646l-0.05-1
		c-0.133-0.633-0.284-1.2-0.45-1.7c-0.194-0.527-0.396-0.979-0.6-1.35c-0.367-0.567-0.783-1.083-1.25-1.55v-0.054l0.021-0.021
		l1.375-1.375h0.055c1.933,1.966,2.917,4.313,2.941,7.05c-0.024,2.771-1.016,5.134-2.941,7.104
		c-1.976,1.936-4.333,2.916-7.104,2.945c-2.729-0.029-5.083-1-7.05-2.896v-0.053l1.375-1.375l0.029-0.021h0.05
		c0.267,0.266,0.563,0.516,0.896,0.75c0.309,0.229,0.617,0.432,0.95,0.6c1.2-5.025,1.217-9.75,0.05-14.146l0.025-0.025
		c0.262-0.187,0.553-0.329,0.875-0.425L141.725,22.716z"/>
	<path fill="#0000FF" d="M149.05,28.24c0.2-0.2,0.438-0.283,0.7-0.25c0.271-0.033,0.521,0.05,0.75,0.25c0.2,0.2,0.3,0.45,0.3,0.75
		c0,0.233-0.062,0.45-0.191,0.65l-0.104,0.1c-0.229,0.2-0.479,0.299-0.75,0.299c-0.267,0-0.5-0.099-0.697-0.299l-0.103-0.1
		c-0.167-0.2-0.23-0.417-0.2-0.65C148.717,28.691,148.817,28.441,149.05,28.24z"/>
	<path fill="#FF0000" d="M144.5,30.741c0.3-0.033,0.533,0.033,0.7,0.199c0.233,0.268,0.35,0.533,0.35,0.801
		c0,0.271-0.1,0.521-0.3,0.749c-0.2,0.201-0.45,0.301-0.75,0.301c-0.267,0-0.5-0.1-0.7-0.301c-0.229-0.229-0.333-0.479-0.3-0.749
		c-0.033-0.268,0.067-0.518,0.3-0.75C144,30.79,144.233,30.708,144.5,30.741z"/>
	<path fill="#00FF00" d="M140,27.99c0.2,0.2,0.3,0.45,0.3,0.75c0,0.271-0.1,0.521-0.3,0.75c-0.229,0.2-0.479,0.3-0.75,0.3
		c-0.267,0-0.5-0.1-0.7-0.3c-0.229-0.229-0.333-0.479-0.3-0.75c-0.033-0.3,0.067-0.55,0.3-0.75c0.2-0.2,0.438-0.283,0.7-0.25
		C139.517,27.707,139.767,27.79,140,27.99z"/>
</g>
<text transform="matrix(1.0226 0 0 1 243.2312 13.0769)" fill="#231F20" font-family="'DroidSans'" font-size="9.423">+12V</text>
<text transform="matrix(1.0226 0 0 1 252.2312 27.5789)" fill="#231F20" font-family="'DroidSans'" font-size="9.423">G</text>
<text transform="matrix(1.0226 0 0 1 252.2312 41.7556)" fill="#231F20" font-family="'DroidSans'" font-size="9.423">R</text>
<text transform="matrix(1.0226 0 0 1 252.2312 56.2556)" fill="#231F20" font-family="'DroidSans'" font-size="9.423">B</text>
<g>
	<polygon fill="#8C8C8C" points="98.865,25.472 98.865,20.497 98.89,20.476 102.14,20.476 102.16,20.497 102.16,25.476 
		102.16,25.497 102.14,25.522 98.89,25.522 98.865,25.497 	"/>
	<polygon fill="#8C8C8C" points="98.865,38.132 98.865,33.156 98.89,33.135 102.14,33.135 102.16,33.156 102.16,38.135 
		102.16,38.156 102.14,38.181 98.89,38.181 98.865,38.156 	"/>
	<rect x="97.887" y="23.771" fill="#232323" stroke="#000000" stroke-miterlimit="10" width="5.25" height="11"/>
</g>
<g>
	<polygon fill="#8C8C8C" points="111.115,25.415 111.115,20.439 111.14,20.419 114.39,20.419 114.41,20.439 114.41,25.419 
		114.41,25.439 114.39,25.465 111.14,25.465 111.115,25.439 	"/>
	<polygon fill="#8C8C8C" points="111.115,38.074 111.115,33.098 111.14,33.078 114.39,33.078 114.41,33.098 114.41,38.078 
		114.41,38.098 114.39,38.124 111.14,38.124 111.115,38.098 	"/>
	<rect x="110.137" y="23.714" fill="#232323" stroke="#000000" stroke-miterlimit="10" width="5.25" height="11"/>
</g>
<g>
	<polygon fill="#8C8C8C" points="179.864,25.415 179.864,20.439 179.889,20.419 183.139,20.419 183.161,20.439 183.161,25.419 
		183.161,25.439 183.139,25.465 179.889,25.465 179.864,25.439 	"/>
	<polygon fill="#8C8C8C" points="179.864,38.074 179.864,33.098 179.889,33.078 183.139,33.078 183.161,33.098 183.161,38.078 
		183.161,38.098 183.139,38.124 179.889,38.124 179.864,38.098 	"/>
	<rect x="178.887" y="23.714" fill="#232323" stroke="#000000" stroke-miterlimit="10" width="5.25" height="11"/>
</g>
<rect id="connector6" x="282.173" y="32.844" fill="none" width="8.32" height="9.055"/>
<rect id="connector7" x="281.504" y="48.243" fill="none" width="9.956" height="9.572"/>
<rect id="connector4" x="282.175" y="19.168" fill="none" width="8.318" height="8.648"/>
<rect id="connector5_1_" x="281.893" y="3.451" fill="none" width="8.315" height="8.648"/>
<rect id="connector1" x="0.549" y="19.4" fill="none" width="8.229" height="8.617"/>
<rect id="connector0" x="0.635" y="3.467" fill="none" width="8.19" height="8.617"/>
<rect id="connector2" x="1.12" y="32.849" fill="none" width="8.229" height="8.614"/>
<rect id="connector3" x="1.12" y="48.349" fill="none" width="8.229" height="8.614"/>
</svg>
